DBRep_DrawableShape

CASCADE Topology V1, (c) Matra-Datavision
Locations 0
Curve2ds 4
1 0 0 1 0 
1 3.1415926535897931 0 0 1 
1 6.2831853071795862 0 0 1 
1 0 175.91 1 0 
Curves 6
2 -20 0 13 1 0 -0 0 0 1 0 -1 0 30
7 0 0  1 2 2  -20 -3.67394039744206e-15 -17  155.91 -3.67394039744206e-15 -17 
 0 2 175.91 2
1 -20 0 43 1 0 0 
2 155.91 0 13 1 0 -0 0 0 1 0 -1 0 30
1 -20 0 -17 0 0 1 
1 155.91 0 -17 0 0 1 
Polygon3D 0
PolygonOnTriangulations 0
Surfaces 4
10 3.1415926535897931 6.2831853071795862 0 175.91
2 -20 0 13 1 0 0 0 0 1 0 -1 0 30
1 -20 0 13 1 0 0 0 0 1 0 -1 0 
1 -20 0 -17 0 1 0 0 0 1 1 0 0 
1 155.91 0 13 1 0 0 0 0 1 0 -1 0 
Triangulations 0

TShapes 21
Ve
1e-05
-20 -1.83697019872103e-15 -17
0 0

0101101
*
Ve
1.0000100484255e-07
-20 3.67394039744206e-15 43
0 0

0101101
*
Ed
 1e-07 1 1 0
1  1 0 3.14159265358979 6.28318530717959
2  1 1 0 3.14159265358979 6.28318530717959
0

0101000
+21 0 -20 0 *
Ve
1e-05
155.91 -1.83697019872103e-15 -17
0 0

0101101
*
Ed
 1e-05 1 1 0
1  2 0 0 175.91
2  2 1 0 0 175.91
0

0101000
+21 0 -18 0 *
Ve
1.0000100484255e-07
155.91 3.67394039744206e-15 43
0 0

0101101
*
Ed
 1e-07 1 1 0
1  3 0 0 175.91
2  3 1 0 0 175.91
0

0101000
+20 0 -16 0 *
Ed
 1e-07 1 1 0
1  4 0 3.14159265358979 6.28318530717959
2  4 1 0 3.14159265358979 6.28318530717959
0

0101000
+18 0 -16 0 *
Wi

0101000
+19 0 -17 0 +15 0 -14 0 *
Fa
0  1e-07 1 0

0111000
+13 0 *
Ed
 1e-07 1 1 0
1  5 0 0 60
0

0101000
+21 0 -20 0 *
Wi

0101000
+19 0 -11 0 *
Fa
0  1e-07 2 0

0111000
+10 0 *
Ed
 1e-07 1 1 0
1  6 0 0 60
0

0101000
+18 0 -16 0 *
Wi

0101000
-17 0 +11 0 -8 0 +15 0 *
Fa
0  1e-07 3 0

0111000
+7 0 *
Wi

0101000
+14 0 -8 0 *
Fa
0  1e-07 4 0

0111000
+5 0 *
Sh

0101100
+12 0 -9 0 -6 0 +4 0 *
So

0100000
+3 0 *
Co

1100000
+2 0 *

+1 0 
##EGADS HEADER FILE-REV 1 ##
0
  1  1  4  4  6  4  2
1 4 1
body
562
1 4 1
brch
540
    2 0 3
1 4 2
body
558 4 
1 4 2
brch
536 4 
1 6 3
faceID
558 4 1 
    2 1 3
1 4 2
body
558 1 
1 4 2
brch
536 1 
1 6 3
faceID
558 1 1 
    2 2 3
1 4 2
body
560 3 
1 4 2
brch
538 3 
1 6 3
faceID
560 3 1 
    2 3 3
1 4 2
body
558 2 
1 4 2
brch
536 2 
1 6 3
faceID
558 2 1 
    4 0 2
1 4 2
body
558 104 
1 6 5
edgeID
558 1 558 4 1 
    4 1 2
1 4 2
body
562 0 
1 6 5
edgeID
558 4 560 3 1 
    4 2 2
1 4 2
body
562 0 
1 6 5
edgeID
558 4 560 3 2 
    4 3 2
1 4 2
body
558 204 
1 6 5
edgeID
558 2 558 4 1 
    4 4 2
1 4 2
body
562 0 
1 6 5
edgeID
558 1 560 3 1 
    4 5 2
1 4 2
body
562 0 
1 6 5
edgeID
558 2 560 3 1 
    0 0 0
