DBRep_DrawableShape

CASCADE Topology V1, (c) Matra-Datavision
Locations 0
Curve2ds 4
1 0 0 1 0 
1 1 0 0 1 
1 0 0 0 1 
1 0 1 1 0 
Curves 4
7 0 0  3 9 7  103.5 0 16.800000000000001  103.83333333333333 0.085133333333333353 16.800000000000001  104.64274493725608 0.39545408221666323 16.800000000000001  106.00249180129748 0.097593800622623045 16.800000000000001  107.50515178388511 0.22980403651977427 16.800000000000001  108.98764513340787 0.38159891691705411 16.800000000000001  110.3796877287927 0.48878317512406783 16.800000000000001  111.16666666666667 0.11643333333333333 16.800000000000001  111.5 0 16.800000000000001 
 0 4 0.12739297509580491 1 0.31280498689199038 1 0.49808910634347264 1 0.68407949907700061 1 0.8692557282453226 1 1 4
7 0 0  3 9 7  103.5 0 16.800000000000001  103.83333333333333 -2.6020852139652033e-19 16.714866666666666  104.64274493725608 5.2041704279304213e-18 16.404545917783338  106.00249180129748 -1.7347234759768071e-18 16.702406199377378  107.50515178388511 0 16.570195963480227  108.98764513340787 0 16.418401083082948  110.3796877287927 -3.4694469519536142e-18 16.311216824875935  111.16666666666667 2.0816681711721681e-18 16.683566666666668  111.5 0 16.800000000000001 
 0 4 0.12739297509580491 1 0.31280498689199038 1 0.49808910634347264 1 0.68407949907700061 1 0.8692557282453226 1 1 4
7 0 0  3 9 7  103.5 0 16.800000000000001  103.83333333333333 2.6020852139652033e-19 16.885133333333336  104.64274493725608 -5.2041704279304213e-18 17.195454082216663  106.00249180129748 1.7347234759768071e-18 16.897593800622623  107.50515178388511 0 17.029804036519774  108.98764513340787 0 17.181598916917054  110.3796877287927 3.4694469519536142e-18 17.288783175124067  111.16666666666667 -2.0816681711721681e-18 16.916433333333334  111.5 0 16.800000000000001 
 0 4 0.12739297509580491 1 0.31280498689199038 1 0.49808910634347264 1 0.68407949907700061 1 0.8692557282453226 1 1 4
7 0 0  3 9 7  103.5 0 16.800000000000001  103.83333333333333 -0.085133333333333353 16.800000000000001  104.64274493725608 -0.39545408221666323 16.800000000000001  106.00249180129748 -0.097593800622623045 16.800000000000001  107.50515178388511 -0.22980403651977427 16.800000000000001  108.98764513340787 -0.38159891691705411 16.800000000000001  110.3796877287927 -0.48878317512406783 16.800000000000001  111.16666666666667 -0.11643333333333333 16.800000000000001  111.5 0 16.800000000000001 
 0 4 0.12739297509580491 1 0.31280498689199038 1 0.49808910634347264 1 0.68407949907700061 1 0.8692557282453226 1 1 4
Polygon3D 0
PolygonOnTriangulations 0
Surfaces 4
9 0 0 0 0 3 3 14 9 12 7 103.5 0 16.800000000000001  103.83333333333333 -2.6020852139652033e-19 16.714866666666666  104.64274493725608 5.2041704279304213e-18 16.404545917783338  106.00249180129748 -1.7347234759768071e-18 16.702406199377378  107.50515178388511 0 16.570195963480227  108.98764513340787 0 16.418401083082948  110.3796877287927 -3.4694469519536142e-18 16.311216824875935  111.16666666666667 2.0816681711721681e-18 16.683566666666668  111.5 0 16.800000000000001  
103.5 -4.163590452228512e-19 16.800000000000001  103.83333333333333 0.0040386145480986431 16.715161140458285  104.64274493701436 0.018833468651039683 16.405325490072798  106.00249180171065 0.0046423287683710892 16.702642927142307  107.5051517834513 0.010940744848334561 16.570678661801331  108.98764513379022 0.018160130282613575 16.419259189799632  110.37968772858105 0.023278872904355121 16.312173351182548  111.16666666666667 0.0055234255765876294 16.683969392396829  111.5 1.2079113344319944e-18 16.800000000000001  
103.5 3.3006111171254042e-18 16.800000000000001  103.83333333336461 0.012163635528009619 16.715346477125181  104.64274494125212 0.056467313782091993 16.407047696141316  106.00249179457752 0.01393805861025486 16.703003058953584  107.50515179072299 0.032815828787738491 16.571636087450724  108.98764512759001 0.054494524376903428 16.42076570654077  110.37968773193995 0.069792945740319079 16.314311852957903  111.16666666663539 0.016635552723082484 16.684222779989884  111.5 3.9228213369714908e-18 16.800000000000001  
103.5 -1.059002942304689e-17 16.800000000000001  103.83333333329408 0.024064415684823037 16.718046147601122  104.6427449327235 0.11179110745348497 16.419241841722965  106.00249180890685 0.027588203220924534 16.706038480149232  107.50515177616845 0.064962764651417176 16.57873956847023  108.98764513994739 0.10787347828603958 16.432595750222159  110.3796877252644 0.13817519167898157 16.329380730946106  111.16666666670592 0.032912087468178593 16.687915244552361  111.5 4.7988651626692386e-18 16.800000000000001  
103.5 4.2902218778430312e-18 16.800000000000001  103.83333333337102 0.035486773326464646 16.7223012980763  104.64274494127498 0.16483770146378568 16.439100202138672  106.00249179455999 0.0406803246651678 16.710932388537312  107.50515179069799 0.095789776095621185 16.590275008709241  108.98764512765374 0.15906246177403549 16.451740939102521  110.37968773189029 0.20373976572001717 16.353925990521521  111.16666666662898 0.048533688565921156 16.693734621444413  111.5 -4.8022532944582558e-17 16.800000000000001  
103.5 2.422514229147299e-18 16.800000000000001  103.83333333330636 0.046182825771214693 16.728133778494591  104.64274493453911 0.21452507914497584 16.466167959971379  106.0024918058475 0.052942412284851845 16.717614191187174  107.50515177929434 0.12466359978373349 16.60600572417826  108.98764513727508 0.20700876436862675 16.477864968762248  110.37968772671451 0.2651539756497574 16.387381872059041  111.16666666669364 0.063162320164416516 16.701711538995866  111.5 3.2775092861057897e-17 16.800000000000001  
103.5 -4.0267946312469438e-18 16.800000000000001  103.83333333334311 0.055940793432627325 16.735443282406784  104.642744938211 0.25985157425967509 16.500127989604113  106.00249179969927 0.064128603149063282 16.725994785839095  107.50515178549567 0.15100335592460859 16.625739898603527  108.9876451320531 0.25074774797226812 16.51063446137023  110.37968772952004 0.32117817197457643 16.429357067120836  111.16666666665689 0.076507991578865134 16.711708528026598  111.5 -1.1018204577883939e-16 16.800000000000001  
103.5 -9.7725102800484909e-18 16.800000000000001  103.83333333334311 0.064556717593217586 16.744059206567375  104.642744938211 0.2998720103958864 16.540148425740327  106.00249179969927 0.074005214160907384 16.735871396850939  107.50515178549567 0.17426010139647355 16.648996644075392  108.9876451320531 0.28936553862977199 16.549252252027731  110.37968772952004 0.37064293287916428 16.478821828025424  111.16666666665689 0.088291471973403451 16.723492008421136  111.5 -5.0454311596588294e-18 16.800000000000001  
103.5 -1.3184067824013208e-17 16.800000000000001  103.83333333330636 0.071866221505409431 16.753817174228786  104.64274493453911 0.33383204002862321 16.585474920855024  106.0024918058475 0.082385808812827116 16.747057587715148  107.50515177929434 0.19399427582174097 16.675336400216267  108.98764513727508 0.32213503123775261 16.592991235631374  110.37968772671449 0.41261812794096014 16.534846024350244  111.16666666669364 0.098288461004134825 16.736837679835585  111.5 7.8678349371610541e-17 16.800000000000001  
103.5 2.419732255311152e-17 16.800000000000001  103.83333333337102 0.077698701923701943 16.764513226673536  104.64274494127498 0.36089979786132964 16.635162298536216  106.00249179455999 0.089067611462690127 16.759319675334833  107.50515179069799 0.20972499129076033 16.704210223904379  108.98764512765374 0.34825906089747849 16.640937538225966  110.37968773189029 0.44607400947848092 16.596260234279985  111.16666666662898 0.10626537855558567 16.751466311434079  111.5 3.6635776390413739e-17 16.800000000000001  
103.5 -1.625032709307365e-17 16.800000000000001  103.83333333329408 0.081953852398879617 16.775935584315178  104.6427449327235 0.38075815827703574 16.688208892546516  106.00249180890685 0.093961519850770475 16.772411796779075  107.50515177616845 0.22126043152977259 16.735037235348585  108.98764513994738 0.36740424977784292 16.692126521713963  110.3796877252644 0.47061926905389506 16.661824808321018  111.16666666670592 0.112084755447639 16.767087912531821  111.5 9.1950508622137618e-17 16.800000000000001  
103.5 -2.1379111588698541e-18 16.800000000000001  103.83333333336461 0.084653522874818504 16.787836364471993  104.64274494125212 0.39295230385868596 16.743532686217907  106.00249179457754 0.096996941046415514 16.786061941389747  107.50515179072299 0.22836391254927832 16.767184171212261  108.98764512759001 0.37923429345923143 16.745505475623098  110.37968773193995 0.48568814704209662 16.730207054259683  111.16666666663539 0.11577722001011755 16.783364447276917  111.5 -9.9493548775674186e-17 16.800000000000001  
103.5 -3.3542504711271167e-20 16.800000000000001  103.83333333333333 0.084838859541714898 16.795961385451903  104.64274493701436 0.39467450992720399 16.781166531348962  106.00249180171065 0.097357072857695168 16.795357671231631  107.5051517834513 0.22932133819866973 16.789059255151667  108.98764513379022 0.38074081020036876 16.781839869717388  110.37968772858105 0.48782664881745336 16.776721127095644  111.16666666666667 0.11603060760317276 16.794476574423413  111.5 -5.4633625097898905e-21 16.800000000000001  
103.5 0 16.800000000000001  103.83333333333333 0.085133333333333339 16.800000000000001  104.64274493725608 0.39545408221666328 16.800000000000001  106.00249180129748 0.097593800622623017 16.800000000000001  107.50515178388511 0.22980403651977427 16.800000000000001  108.98764513340787 0.38159891691705411 16.800000000000001  110.3796877287927 0.48878317512406777 16.800000000000001  111.16666666666667 0.11643333333333335 16.800000000000001  111.5 0 16.800000000000001  

0 4
0.090909090909090912 1
0.18181818181818182 1
0.27272727272727271 1
0.36363636363636365 1
0.45454545454545459 1
0.54545454545454541 1
0.63636363636363635 1
0.72727272727272729 1
0.81818181818181823 1
0.90909090909090917 1
1 4

0 4
0.12739297509580491 1
0.31280498689199038 1
0.49808910634347264 1
0.68407949907700061 1
0.8692557282453226 1
1 4

9 0 0 0 0 3 3 14 9 12 7 103.5 0 16.800000000000001  103.83333333333333 0.085133333333333353 16.800000000000001  104.64274493725608 0.39545408221666323 16.800000000000001  106.00249180129748 0.097593800622623045 16.800000000000001  107.50515178388511 0.22980403651977427 16.800000000000001  108.98764513340787 0.38159891691705411 16.800000000000001  110.3796877287927 0.48878317512406783 16.800000000000001  111.16666666666667 0.11643333333333333 16.800000000000001  111.5 0 16.800000000000001  
103.5 2.7443867491039276e-20 16.800000000000001  103.83333333333333 0.084838859541714912 16.804038614548098  104.64274493701436 0.39467450992720399 16.818833468651039  106.00249180171065 0.097357072857695154 16.80464232876837  107.5051517834513 0.22932133819866973 16.810940744848335  108.98764513379022 0.38074081020036871 16.818160130282614  110.37968772858105 0.4878266488174533 16.823278872904357  111.16666666666667 0.11603060760317277 16.805523425576588  111.5 3.8878812278970892e-20 16.800000000000001  
103.5 -4.473180994449957e-18 16.800000000000001  103.83333333336461 0.084653522874818476 16.812163635528009  104.64274494125212 0.39295230385868601 16.856467313782094  106.00249179457752 0.09699694104641543 16.813938058610255  107.50515179072299 0.22836391254927835 16.832815828787741  108.98764512759001 0.37923429345923143 16.854494524376904  110.37968773193995 0.48568814704209673 16.869792945740318  111.16666666663539 0.11577722001011753 16.816635552723085  111.5 1.3771400469639307e-16 16.800000000000001  
103.5 -2.2104780596479061e-18 16.800000000000001  103.83333333329408 0.081953852398879645 16.824064415684823  104.6427449327235 0.38075815827703563 16.911791107453485  106.00249180890685 0.093961519850770586 16.827588203220927  107.50515177616845 0.22126043152977257 16.864962764651416  108.98764513994739 0.36740424977784303 16.907873478286039  110.3796877252644 0.47061926905389495 16.938175191678983  111.16666666670592 0.11208475544763902 16.832912087468181  111.5 -1.3881504164870535e-16 16.800000000000001  
103.5 -3.4646612158016274e-17 16.800000000000001  103.83333333337102 0.077698701923701957 16.835486773326465  104.64274494127498 0.3608997978613297 16.964837701463786  106.00249179455999 0.089067611462690044 16.840680324665168  107.50515179069799 0.2097249912907605 16.895789776095622  108.98764512765374 0.34825906089747843 16.959062461774035  110.37968773189029 0.44607400947848092 17.003739765720017  111.16666666662898 0.10626537855558567 16.848533688565922  111.5 1.1909494996632276e-16 16.800000000000001  
103.5 -1.4907171066744847e-17 16.800000000000001  103.83333333330636 0.071866221505409431 16.846182825771216  104.64274493453911 0.33383204002862321 17.014525079144978  106.0024918058475 0.082385808812827144 16.852942412284854  107.50515177929434 0.19399427582174078 16.924663599783734  108.98764513727508 0.32213503123775272 17.007008764368628  110.37968772671451 0.41261812794096026 17.065153975649757  111.16666666669364 0.098288461004134811 16.863162320164417  111.5 -1.3205791572132297e-16 16.800000000000001  
103.5 -1.522965239163232e-18 16.800000000000001  103.83333333334311 0.0645567175932176 16.855940793432627  104.642744938211 0.29987201039588651 17.059851574259675  106.00249179969927 0.074005214160907246 16.864128603149062  107.50515178549567 0.17426010139647372 16.951003355924609  108.9876451320531 0.28936553862977199 17.05074774797227  110.37968772952004 0.370642932879164 17.121178171974577  111.16666666665689 0.08829147197340341 16.876507991578865  111.5 -5.66089059308994e-17 16.800000000000001  
103.5 1.1943164556285342e-18 16.800000000000001  103.83333333334311 0.055940793432627318 16.864556717593217  104.642744938211 0.2598515742596752 17.099872010395888  106.00249179969927 0.064128603149063171 16.87400521416091  107.50515178549567 0.15100335592460867 16.974260101396474  108.9876451320531 0.25074774797226806 17.089365538629771  110.37968772952004 0.32117817197457654 17.170642932879165  111.16666666665689 0.076507991578865148 16.888291471973403  111.5 1.1512871819080641e-17 16.800000000000001  
103.5 6.2256921623189072e-19 16.800000000000001  103.83333333330636 0.046182825771214707 16.87186622150541  104.64274493453911 0.2145250791449759 17.133832040028622  106.0024918058475 0.05294241228485172 16.882385808812828  107.50515177929434 0.12466359978373349 16.993994275821741  108.98764513727508 0.2070087643686267 17.122135031237754  110.37968772671449 0.26515397564975751 17.21261812794096  111.16666666669364 0.063162320164416502 16.898288461004135  111.5 -2.9619048099588276e-17 16.800000000000001  
103.5 -2.7825032317304028e-18 16.800000000000001  103.83333333337102 0.035486773326464653 16.877698701923702  104.64274494127498 0.16483770146378574 17.16089979786133  106.00249179455999 0.04068032466516773 16.889067611462689  107.50515179069799 0.095789776095621129 17.00972499129076  108.98764512765374 0.15906246177403555 17.14825906089748  110.37968773189029 0.20373976572001701 17.24607400947848  111.16666666662898 0.048533688565921135 16.906265378555588  111.5 -7.7948206971074739e-18 16.800000000000001  
103.5 -1.0059967123439267e-17 16.800000000000001  103.83333333329408 0.024064415684823055 16.88195385239888  104.6427449327235 0.11179110745348507 17.180758158277037  106.00249180890685 0.027588203220924486 16.89396151985077  107.50515177616845 0.064962764651417204 17.021260431529772  108.98764513994738 0.10787347828603928 17.167404249777842  110.3796877252644 0.13817519167898168 17.270619269053896  111.16666666670592 0.03291208746817862 16.912084755447641  111.5 1.3285235321651046e-17 16.800000000000001  
103.5 1.784592540746404e-18 16.800000000000001  103.83333333336461 0.012163635528009623 16.884653522874821  104.64274494125212 0.056467313782092035 17.192952303858686  106.00249179457754 0.013938058610254805 16.896996941046417  107.50515179072299 0.032815828787738428 17.028363912549278  108.98764512759001 0.054494524376903476 17.179234293459231  110.37968773193995 0.069792945740318912 17.285688147042098  111.16666666663539 0.016635552723082439 16.915777220010117  111.5 -1.0932654250211254e-17 16.800000000000001  
103.5 5.3521894354631103e-19 16.800000000000001  103.83333333333333 0.004038614548098644 16.884838859541716  104.64274493701436 0.018833468651039683 17.194674509927204  106.00249180171065 0.0046423287683710754 16.897357072857695  107.5051517834513 0.010940744848334551 17.02932133819867  108.98764513379022 0.01816013028261353 17.180740810200369  110.37968772858105 0.0232788729043551 17.287826648817454  111.16666666666667 0.0055234255765876233 16.916030607603172  111.5 2.61631536747908e-18 16.800000000000001  
103.5 0 16.800000000000001  103.83333333333333 2.0222264416065976e-33 16.885133333333336  104.64274493725608 5.2041704279304213e-18 17.195454082216663  106.00249180129748 0 16.897593800622623  107.50515178388511 1.0408340855860843e-17 17.029804036519774  108.98764513340787 1.7347234759768071e-17 17.181598916917054  110.3796877287927 1.3877787807814457e-17 17.288783175124067  111.16666666666667 3.1225022567582521e-18 16.916433333333334  111.5 0 16.800000000000001  

0 4
0.090909090909090912 1
0.18181818181818182 1
0.27272727272727271 1
0.36363636363636365 1
0.45454545454545459 1
0.54545454545454541 1
0.63636363636363635 1
0.72727272727272729 1
0.81818181818181823 1
0.90909090909090917 1
1 4

0 4
0.12739297509580491 1
0.31280498689199038 1
0.49808910634347264 1
0.68407949907700061 1
0.8692557282453226 1
1 4

9 0 0 0 0 3 3 14 9 12 7 103.5 0 16.800000000000001  103.83333333333333 -0.085133333333333353 16.800000000000001  104.64274493725608 -0.39545408221666323 16.800000000000001  106.00249180129748 -0.097593800622623045 16.800000000000001  107.50515178388511 -0.22980403651977427 16.800000000000001  108.98764513340787 -0.38159891691705411 16.800000000000001  110.3796877287927 -0.48878317512406783 16.800000000000001  111.16666666666667 -0.11643333333333333 16.800000000000001  111.5 0 16.800000000000001  
103.5 -2.7443867491039276e-20 16.800000000000001  103.83333333333333 -0.084838859541714912 16.795961385451903  104.64274493701436 -0.39467450992720399 16.781166531348962  106.00249180171065 -0.097357072857695154 16.795357671231631  107.5051517834513 -0.22932133819866973 16.789059255151667  108.98764513379022 -0.38074081020036871 16.781839869717388  110.37968772858105 -0.4878266488174533 16.776721127095644  111.16666666666667 -0.11603060760317277 16.794476574423413  111.5 -3.8878812278970892e-20 16.800000000000001  
103.5 4.473180994449957e-18 16.800000000000001  103.83333333336461 -0.084653522874818476 16.787836364471993  104.64274494125212 -0.39295230385868601 16.743532686217907  106.00249179457752 -0.09699694104641543 16.786061941389747  107.50515179072299 -0.22836391254927835 16.767184171212261  108.98764512759001 -0.37923429345923143 16.745505475623098  110.37968773193995 -0.48568814704209673 16.730207054259683  111.16666666663539 -0.11577722001011753 16.783364447276917  111.5 -1.3771400469639307e-16 16.800000000000001  
103.5 2.2104780596479061e-18 16.800000000000001  103.83333333329408 -0.081953852398879645 16.775935584315178  104.6427449327235 -0.38075815827703563 16.688208892546516  106.00249180890685 -0.093961519850770586 16.772411796779075  107.50515177616845 -0.22126043152977257 16.735037235348585  108.98764513994739 -0.36740424977784303 16.692126521713963  110.3796877252644 -0.47061926905389495 16.661824808321018  111.16666666670592 -0.11208475544763902 16.767087912531821  111.5 1.3881504164870535e-16 16.800000000000001  
103.5 3.4646612158016274e-17 16.800000000000001  103.83333333337102 -0.077698701923701957 16.764513226673536  104.64274494127498 -0.3608997978613297 16.635162298536216  106.00249179455999 -0.089067611462690044 16.759319675334833  107.50515179069799 -0.2097249912907605 16.704210223904379  108.98764512765374 -0.34825906089747843 16.640937538225966  110.37968773189029 -0.44607400947848092 16.596260234279985  111.16666666662898 -0.10626537855558567 16.751466311434079  111.5 -1.1909494996632276e-16 16.800000000000001  
103.5 1.4907171066744847e-17 16.800000000000001  103.83333333330636 -0.071866221505409431 16.753817174228786  104.64274493453911 -0.33383204002862321 16.585474920855024  106.0024918058475 -0.082385808812827144 16.747057587715148  107.50515177929434 -0.19399427582174078 16.675336400216267  108.98764513727508 -0.32213503123775272 16.592991235631374  110.37968772671451 -0.41261812794096026 16.534846024350244  111.16666666669364 -0.098288461004134811 16.736837679835585  111.5 1.3205791572132297e-16 16.800000000000001  
103.5 1.522965239163232e-18 16.800000000000001  103.83333333334311 -0.0645567175932176 16.744059206567375  104.642744938211 -0.29987201039588651 16.540148425740327  106.00249179969927 -0.074005214160907246 16.735871396850939  107.50515178549567 -0.17426010139647372 16.648996644075392  108.9876451320531 -0.28936553862977199 16.549252252027731  110.37968772952004 -0.370642932879164 16.478821828025424  111.16666666665689 -0.08829147197340341 16.723492008421136  111.5 5.66089059308994e-17 16.800000000000001  
103.5 -1.1943164556285342e-18 16.800000000000001  103.83333333334311 -0.055940793432627318 16.735443282406784  104.642744938211 -0.2598515742596752 16.500127989604113  106.00249179969927 -0.064128603149063171 16.725994785839092  107.50515178549567 -0.15100335592460867 16.625739898603527  108.9876451320531 -0.25074774797226806 16.51063446137023  110.37968772952004 -0.32117817197457654 16.429357067120836  111.16666666665689 -0.076507991578865148 16.711708528026598  111.5 -1.1512871819080641e-17 16.800000000000001  
103.5 -6.2256921623189072e-19 16.800000000000001  103.83333333330636 -0.046182825771214707 16.728133778494591  104.64274493453911 -0.2145250791449759 16.466167959971379  106.0024918058475 -0.05294241228485172 16.717614191187174  107.50515177929434 -0.12466359978373349 16.60600572417826  108.98764513727508 -0.2070087643686267 16.477864968762248  110.37968772671449 -0.26515397564975751 16.387381872059041  111.16666666669364 -0.063162320164416502 16.701711538995866  111.5 2.9619048099588276e-17 16.800000000000001  
103.5 2.7825032317304028e-18 16.800000000000001  103.83333333337102 -0.035486773326464653 16.7223012980763  104.64274494127498 -0.16483770146378574 16.439100202138672  106.00249179455999 -0.04068032466516773 16.710932388537312  107.50515179069799 -0.095789776095621129 16.590275008709241  108.98764512765374 -0.15906246177403555 16.451740939102521  110.37968773189029 -0.20373976572001701 16.353925990521521  111.16666666662898 -0.048533688565921135 16.693734621444413  111.5 7.7948206971074739e-18 16.800000000000001  
103.5 1.0059967123439267e-17 16.800000000000001  103.83333333329408 -0.024064415684823055 16.718046147601122  104.6427449327235 -0.11179110745348507 16.419241841722965  106.00249180890685 -0.027588203220924486 16.706038480149232  107.50515177616845 -0.064962764651417204 16.57873956847023  108.98764513994738 -0.10787347828603928 16.432595750222159  110.3796877252644 -0.13817519167898168 16.329380730946106  111.16666666670592 -0.03291208746817862 16.687915244552361  111.5 -1.3285235321651046e-17 16.800000000000001  
103.5 -1.784592540746404e-18 16.800000000000001  103.83333333336461 -0.012163635528009623 16.715346477125181  104.64274494125212 -0.056467313782092035 16.407047696141316  106.00249179457754 -0.013938058610254805 16.703003058953584  107.50515179072299 -0.032815828787738428 16.571636087450724  108.98764512759001 -0.054494524376903476 16.42076570654077  110.37968773193995 -0.069792945740318912 16.314311852957903  111.16666666663539 -0.016635552723082439 16.684222779989884  111.5 1.0932654250211254e-17 16.800000000000001  
103.5 -5.3521894354631103e-19 16.800000000000001  103.83333333333333 -0.004038614548098644 16.715161140458285  104.64274493701436 -0.018833468651039683 16.405325490072798  106.00249180171065 -0.0046423287683710754 16.702642927142307  107.5051517834513 -0.010940744848334551 16.570678661801331  108.98764513379022 -0.01816013028261353 16.419259189799632  110.37968772858105 -0.0232788729043551 16.312173351182548  111.16666666666667 -0.0055234255765876233 16.683969392396829  111.5 -2.61631536747908e-18 16.800000000000001  
103.5 0 16.800000000000001  103.83333333333333 -2.0222264416065976e-33 16.714866666666666  104.64274493725608 -5.2041704279304213e-18 16.404545917783338  106.00249180129748 0 16.702406199377378  107.50515178388511 -1.0408340855860843e-17 16.570195963480227  108.98764513340787 -1.7347234759768071e-17 16.418401083082948  110.3796877287927 -1.3877787807814457e-17 16.311216824875935  111.16666666666667 -3.1225022567582521e-18 16.683566666666668  111.5 0 16.800000000000001  

0 4
0.090909090909090912 1
0.18181818181818182 1
0.27272727272727271 1
0.36363636363636365 1
0.45454545454545459 1
0.54545454545454541 1
0.63636363636363635 1
0.72727272727272729 1
0.81818181818181823 1
0.90909090909090917 1
1 4

0 4
0.12739297509580491 1
0.31280498689199038 1
0.49808910634347264 1
0.68407949907700061 1
0.8692557282453226 1
1 4

9 0 0 0 0 3 3 14 9 12 7 103.5 0 16.800000000000001  103.83333333333333 2.6020852139652033e-19 16.885133333333336  104.64274493725608 -5.2041704279304213e-18 17.195454082216663  106.00249180129748 1.7347234759768071e-18 16.897593800622623  107.50515178388511 0 17.029804036519774  108.98764513340787 0 17.181598916917054  110.3796877287927 3.4694469519536142e-18 17.288783175124067  111.16666666666667 -2.0816681711721681e-18 16.916433333333334  111.5 0 16.800000000000001  
103.5 4.163590452228512e-19 16.800000000000001  103.83333333333333 -0.0040386145480986431 16.884838859541716  104.64274493701436 -0.018833468651039683 17.194674509927204  106.00249180171065 -0.0046423287683710892 16.897357072857695  107.5051517834513 -0.010940744848334561 17.02932133819867  108.98764513379022 -0.018160130282613575 17.180740810200369  110.37968772858105 -0.023278872904355121 17.287826648817454  111.16666666666667 -0.0055234255765876294 16.916030607603172  111.5 -1.2079113344319944e-18 16.800000000000001  
103.5 -3.3006111171254042e-18 16.800000000000001  103.83333333336461 -0.012163635528009619 16.884653522874821  104.64274494125212 -0.056467313782091993 17.192952303858686  106.00249179457752 -0.01393805861025486 16.896996941046417  107.50515179072299 -0.032815828787738491 17.028363912549278  108.98764512759001 -0.054494524376903428 17.179234293459231  110.37968773193995 -0.069792945740319079 17.285688147042098  111.16666666663539 -0.016635552723082484 16.915777220010117  111.5 -3.9228213369714908e-18 16.800000000000001  
103.5 1.059002942304689e-17 16.800000000000001  103.83333333329408 -0.024064415684823037 16.88195385239888  104.6427449327235 -0.11179110745348497 17.180758158277037  106.00249180890685 -0.027588203220924534 16.89396151985077  107.50515177616845 -0.064962764651417176 17.021260431529772  108.98764513994739 -0.10787347828603958 17.167404249777842  110.3796877252644 -0.13817519167898157 17.270619269053896  111.16666666670592 -0.032912087468178593 16.912084755447641  111.5 -4.7988651626692386e-18 16.800000000000001  
103.5 -4.2902218778430312e-18 16.800000000000001  103.83333333337102 -0.035486773326464646 16.877698701923702  104.64274494127498 -0.16483770146378568 17.16089979786133  106.00249179455999 -0.0406803246651678 16.889067611462689  107.50515179069799 -0.095789776095621185 17.00972499129076  108.98764512765374 -0.15906246177403549 17.14825906089748  110.37968773189029 -0.20373976572001717 17.24607400947848  111.16666666662898 -0.048533688565921156 16.906265378555588  111.5 4.8022532944582558e-17 16.800000000000001  
103.5 -2.422514229147299e-18 16.800000000000001  103.83333333330636 -0.046182825771214693 16.87186622150541  104.64274493453911 -0.21452507914497584 17.133832040028622  106.0024918058475 -0.052942412284851845 16.882385808812828  107.50515177929434 -0.12466359978373349 16.993994275821741  108.98764513727508 -0.20700876436862675 17.122135031237754  110.37968772671451 -0.2651539756497574 17.21261812794096  111.16666666669364 -0.063162320164416516 16.898288461004135  111.5 -3.2775092861057897e-17 16.800000000000001  
103.5 4.0267946312469438e-18 16.800000000000001  103.83333333334311 -0.055940793432627325 16.864556717593217  104.642744938211 -0.25985157425967509 17.099872010395888  106.00249179969927 -0.064128603149063282 16.874005214160906  107.50515178549567 -0.15100335592460859 16.974260101396474  108.9876451320531 -0.25074774797226812 17.089365538629771  110.37968772952004 -0.32117817197457643 17.170642932879165  111.16666666665689 -0.076507991578865134 16.888291471973403  111.5 1.1018204577883939e-16 16.800000000000001  
103.5 9.7725102800484909e-18 16.800000000000001  103.83333333334311 -0.064556717593217586 16.855940793432627  104.642744938211 -0.2998720103958864 17.059851574259675  106.00249179969927 -0.074005214160907384 16.864128603149062  107.50515178549567 -0.17426010139647355 16.951003355924609  108.9876451320531 -0.28936553862977199 17.05074774797227  110.37968772952004 -0.37064293287916428 17.121178171974577  111.16666666665689 -0.088291471973403451 16.876507991578865  111.5 5.0454311596588294e-18 16.800000000000001  
103.5 1.3184067824013208e-17 16.800000000000001  103.83333333330636 -0.071866221505409431 16.846182825771216  104.64274493453911 -0.33383204002862321 17.014525079144978  106.0024918058475 -0.082385808812827116 16.852942412284854  107.50515177929434 -0.19399427582174097 16.924663599783734  108.98764513727508 -0.32213503123775261 17.007008764368628  110.37968772671449 -0.41261812794096014 17.065153975649757  111.16666666669364 -0.098288461004134825 16.863162320164417  111.5 -7.8678349371610541e-17 16.800000000000001  
103.5 -2.419732255311152e-17 16.800000000000001  103.83333333337102 -0.077698701923701943 16.835486773326465  104.64274494127498 -0.36089979786132964 16.964837701463786  106.00249179455999 -0.089067611462690127 16.840680324665168  107.50515179069799 -0.20972499129076033 16.895789776095622  108.98764512765374 -0.34825906089747849 16.959062461774035  110.37968773189029 -0.44607400947848092 17.003739765720017  111.16666666662898 -0.10626537855558567 16.848533688565922  111.5 -3.6635776390413739e-17 16.800000000000001  
103.5 1.625032709307365e-17 16.800000000000001  103.83333333329408 -0.081953852398879617 16.824064415684823  104.6427449327235 -0.38075815827703574 16.911791107453485  106.00249180890685 -0.093961519850770475 16.827588203220927  107.50515177616845 -0.22126043152977259 16.864962764651416  108.98764513994738 -0.36740424977784292 16.907873478286039  110.3796877252644 -0.47061926905389506 16.938175191678983  111.16666666670592 -0.112084755447639 16.832912087468181  111.5 -9.1950508622137618e-17 16.800000000000001  
103.5 2.1379111588698541e-18 16.800000000000001  103.83333333336461 -0.084653522874818504 16.812163635528009  104.64274494125212 -0.39295230385868596 16.856467313782094  106.00249179457754 -0.096996941046415514 16.813938058610255  107.50515179072299 -0.22836391254927832 16.832815828787741  108.98764512759001 -0.37923429345923143 16.854494524376904  110.37968773193995 -0.48568814704209662 16.869792945740318  111.16666666663539 -0.11577722001011755 16.816635552723085  111.5 9.9493548775674186e-17 16.800000000000001  
103.5 3.3542504711271167e-20 16.800000000000001  103.83333333333333 -0.084838859541714898 16.804038614548098  104.64274493701436 -0.39467450992720399 16.818833468651039  106.00249180171065 -0.097357072857695168 16.80464232876837  107.5051517834513 -0.22932133819866973 16.810940744848335  108.98764513379022 -0.38074081020036876 16.818160130282614  110.37968772858105 -0.48782664881745336 16.823278872904357  111.16666666666667 -0.11603060760317276 16.805523425576588  111.5 5.4633625097898905e-21 16.800000000000001  
103.5 0 16.800000000000001  103.83333333333333 -0.085133333333333339 16.800000000000001  104.64274493725608 -0.39545408221666328 16.800000000000001  106.00249180129748 -0.097593800622623017 16.800000000000001  107.50515178388511 -0.22980403651977427 16.800000000000001  108.98764513340787 -0.38159891691705411 16.800000000000001  110.3796877287927 -0.48878317512406777 16.800000000000001  111.16666666666667 -0.11643333333333335 16.800000000000001  111.5 0 16.800000000000001  

0 4
0.090909090909090912 1
0.18181818181818182 1
0.27272727272727271 1
0.36363636363636365 1
0.45454545454545459 1
0.54545454545454541 1
0.63636363636363635 1
0.72727272727272729 1
0.81818181818181823 1
0.90909090909090917 1
1 4

0 4
0.12739297509580491 1
0.31280498689199038 1
0.49808910634347264 1
0.68407949907700061 1
0.8692557282453226 1
1 4

Triangulations 0

TShapes 25
Ve
1e-07
103.5 0 16.8
0 0

0101101
*
Ed
 1e-07 1 1 1
2  1 1 0 0 1
0

0101100
+25 0 -25 0 *
Ve
1e-07
111.5 0 16.8
0 0

0101101
*
Ed
 1e-07 1 1 0
1  1 0 0 1
2  2 1 0 0 1
2  3 2 0 0 1
0

0101000
+25 0 -23 0 *
Ed
 1e-07 1 1 1
2  4 1 0 0 1
0

0101100
+23 0 -23 0 *
Ed
 1e-07 1 1 0
1  2 0 0 1
2  3 1 0 0 1
2  2 3 0 0 1
0

0101000
+25 0 -23 0 *
Wi

0101100
+24 0 +22 0 -21 0 -20 0 *
Fa
0  1e-07 1 0

0111000
+19 0 *
Ed
 1e-07 1 1 1
2  1 2 0 0 1
0

0101100
+25 0 -25 0 *
Ed
 1e-07 1 1 0
1  3 0 0 1
2  2 2 0 0 1
2  3 4 0 0 1
0

0101000
+25 0 -23 0 *
Ed
 1e-07 1 1 1
2  4 2 0 0 1
0

0101100
+23 0 -23 0 *
Wi

0101100
+17 0 +16 0 -15 0 -22 0 *
Fa
0  1e-07 2 0

0111000
+14 0 *
Ed
 1e-07 1 1 1
2  1 4 0 0 1
0

0101100
+25 0 -25 0 *
Ed
 1e-07 1 1 0
1  4 0 0 1
2  2 4 0 0 1
2  3 3 0 0 1
0

0101000
+25 0 -23 0 *
Ed
 1e-07 1 1 1
2  4 4 0 0 1
0

0101100
+23 0 -23 0 *
Wi

0101100
+12 0 +11 0 -10 0 -16 0 *
Fa
0  1e-07 4 0

0111000
+9 0 *
Ed
 1e-07 1 1 1
2  1 3 0 0 1
0

0101100
+25 0 -25 0 *
Ed
 1e-07 1 1 1
2  4 3 0 0 1
0

0101100
+23 0 -23 0 *
Wi

0101100
+7 0 +20 0 -6 0 -11 0 *
Fa
0  1e-07 3 0

0111000
+5 0 *
Sh

0101000
+18 0 +13 0 +8 0 +4 0 *
So

0100000
+3 0 *
Co

1100000
+2 0 *

+1 0 
##EGADS HEADER FILE-REV 1 ##
0
  1  1  4  4  12  2  3
1 4 1
body
377
1 4 1
brch
291
2 3 1
pod
 0.000000000000e+00
    2 0 5
2 13 12
.blendSamples
 0.000000000000e+00  9.090909090909e-02  1.818181818182e-01  2.727272727273e-01  3.636363636364e-01  4.545454545455e-01  5.454545454545e-01  6.363636363636e-01  7.272727272727e-01  8.181818181818e-01  9.090909090909e-01  1.000000000000e+00 
1 12 7
.blendSenses
0 1 1 1 1 1 0 
1 4 2
body
376 3 
1 4 4
brch
290 3 278 1 
1 6 3
faceID
376 3 1 
    2 1 5
2 13 12
.blendSamples
 0.000000000000e+00  9.090909090909e-02  1.818181818182e-01  2.727272727273e-01  3.636363636364e-01  4.545454545455e-01  5.454545454545e-01  6.363636363636e-01  7.272727272727e-01  8.181818181818e-01  9.090909090909e-01  1.000000000000e+00 
1 12 7
.blendSenses
0 1 1 1 1 1 0 
1 4 2
body
376 4 
1 4 4
brch
290 4 278 1 
1 6 3
faceID
376 4 1 
    2 2 5
2 13 12
.blendSamples
 0.000000000000e+00  9.090909090909e-02  1.818181818182e-01  2.727272727273e-01  3.636363636364e-01  4.545454545455e-01  5.454545454545e-01  6.363636363636e-01  7.272727272727e-01  8.181818181818e-01  9.090909090909e-01  1.000000000000e+00 
1 12 7
.blendSenses
0 1 1 1 1 1 0 
1 4 2
body
376 1 
1 4 4
brch
290 1 278 1 
1 6 3
faceID
376 1 1 
    2 3 5
2 13 12
.blendSamples
 0.000000000000e+00  9.090909090909e-02  1.818181818182e-01  2.727272727273e-01  3.636363636364e-01  4.545454545455e-01  5.454545454545e-01  6.363636363636e-01  7.272727272727e-01  8.181818181818e-01  9.090909090909e-01  1.000000000000e+00 
1 12 7
.blendSenses
0 1 1 1 1 1 0 
1 4 2
body
376 2 
1 4 4
brch
290 2 278 1 
1 6 3
faceID
376 2 1 
    4 0 2
1 4 2
body
376 -3 
1 6 5
edgeID
0 0 376 3 1 
    4 1 2
1 4 2
body
376 304 
1 6 5
edgeID
376 3 376 4 1 
    4 2 2
1 4 2
body
376 -3 
1 6 5
edgeID
0 0 376 3 2 
    4 3 2
1 4 2
body
376 203 
1 6 5
edgeID
376 2 376 3 1 
    4 4 2
1 4 2
body
376 -3 
1 6 5
edgeID
0 0 376 4 1 
    4 5 2
1 4 2
body
376 104 
1 6 5
edgeID
376 1 376 4 1 
    4 6 2
1 4 2
body
376 -3 
1 6 5
edgeID
0 0 376 4 2 
    4 7 2
1 4 2
body
376 -3 
1 6 5
edgeID
0 0 376 1 1 
    4 8 2
1 4 2
body
376 102 
1 6 5
edgeID
376 1 376 2 1 
    4 9 2
1 4 2
body
376 -3 
1 6 5
edgeID
0 0 376 1 2 
    4 10 2
1 4 2
body
376 -3 
1 6 5
edgeID
0 0 376 2 1 
    4 11 2
1 4 2
body
376 -3 
1 6 5
edgeID
0 0 376 2 2 
    5 0 2
1 4 1
body
353
1 4 1
brch
281
    5 1 2
1 4 1
body
375
1 4 1
brch
289
    0 0 0
